<svg width="512" height="512" viewBox="0 0 512 512" xmlns="http://www.w3.org/2000/svg">
  <defs>
    <linearGradient id="a" x1="0" y1="0" x2="1" y2="1">
      <stop offset="0%" stop-color="#fcd34d"/>
      <stop offset="100%" stop-color="#f59e0b"/>
    </linearGradient>
  </defs>
  <rect width="512" height="512" rx="112" fill="url(#a)"/>
  <g transform="translate(106,106) scale(12.5)" fill="none" stroke="#0b0b0e" stroke-width="2" stroke-linecap="round" stroke-linejoin="round">
    <path d="m15 12-8.5 8.5a2.12 2.12 0 1 1-3-3L12 9"/>
    <path d="M17.64 15 22 10.64"/>
    <path d="m20.91 11.7-1.25-1.25c-.6-.6-.93-1.4-.93-2.25v-.86L16.01 4.6a5.56 5.56 0 0 0-3.94-1.64H9l.92.82A6.18 6.18 0 0 1 12 8.4v1.56l2 2h2.47l2.26 2.26"/>
  </g>
</svg>
