<svg width="1200" height="630" viewBox="0 0 1200 630" xmlns="http://www.w3.org/2000/svg" font-family="Helvetica, Arial, sans-serif">
  <defs>
    <radialGradient id="glow" cx="18%" cy="12%" r="70%">
      <stop offset="0%" stop-color="#f59e0b" stop-opacity="0.20"/>
      <stop offset="100%" stop-color="#f59e0b" stop-opacity="0"/>
    </radialGradient>
    <linearGradient id="amber" x1="0" y1="0" x2="1" y2="1">
      <stop offset="0%" stop-color="#fcd34d"/>
      <stop offset="100%" stop-color="#f59e0b"/>
    </linearGradient>
  </defs>

  <!-- Backdrop -->
  <rect width="1200" height="630" fill="#0b0b0e"/>
  <rect width="1200" height="630" fill="url(#glow)"/>

  <!-- The subject's own material: faint Inform 6 source as texture -->
  <g font-family="'Courier New', Courier, monospace" font-size="25" fill="#23232b" xml:space="preserve">
    <text x="650" y="150">Constant Story "THE COTTAGE";</text>
    <text x="650" y="188">Include "Parser";  Include "VerbLib";</text>
    <text x="650" y="226">[ Initialise; location = Cottage; ];</text>
    <text x="650" y="264">Object Cottage "Cottage"</text>
    <text x="650" y="302">  with  description "A cosy room.",</text>
    <text x="650" y="340">  has   light;</text>
    <text x="650" y="378">Object -> lamp "brass lamp"</text>
    <text x="650" y="416">  with  name 'brass' 'lamp';</text>
    <text x="650" y="492" fill="#2c2c34">&gt; take lamp</text>
    <text x="650" y="530" fill="#2c2c34">Taken.</text>
  </g>

  <!-- Forge mark: hammer in an amber tile -->
  <rect x="90" y="212" width="158" height="158" rx="34" fill="url(#amber)"/>
  <g transform="translate(110,232) scale(4.9)" fill="none" stroke="#0b0b0e" stroke-width="2" stroke-linecap="round" stroke-linejoin="round">
    <path d="m15 12-8.5 8.5a2.12 2.12 0 1 1-3-3L12 9"/>
    <path d="M17.64 15 22 10.64"/>
    <path d="m20.91 11.7-1.25-1.25c-.6-.6-.93-1.4-.93-2.25v-.86L16.01 4.6a5.56 5.56 0 0 0-3.94-1.64H9l.92.82A6.18 6.18 0 0 1 12 8.4v1.56l2 2h2.47l2.26 2.26"/>
  </g>

  <!-- Wordmark + tagline -->
  <text x="286" y="300" font-family="Georgia, 'Times New Roman', serif" font-size="98" font-weight="700" fill="#f5f3ee">Frotzsmith</text>
  <text x="290" y="352" font-size="33" fill="#a8a29e">A browser-based Interactive Fiction IDE</text>
  <text x="290" y="406" font-family="'Courier New', Courier, monospace" font-size="26" fill="#fbbf24">&gt; compile &#183; play &#183; entirely client-side</text>

  <!-- Footer rule + tags -->
  <rect x="92" y="556" width="1016" height="2" fill="#1c1c22"/>
  <text x="92" y="596" font-family="'Courier New', Courier, monospace" font-size="22" fill="#6b6b72">Inform 6 &#183; PunyInform &#183; ZIL &#183; Z-machine &#183; play in the browser</text>
</svg>
